<svg xmlns="http://www.w3.org/2000/svg" width="850" height="850" viewBox="0 0 850 850" version="1.1"><path d="M 562 309.147 C 557.325 309.631, 550.141 310.947, 546.035 312.070 C 541.929 313.193, 535.975 315.495, 532.802 317.186 L 527.034 320.261 518.596 329.014 L 510.158 337.766 505.626 347.133 L 501.094 356.500 498.495 365.500 C 497.066 370.450, 495.238 378.775, 494.433 384 L 492.968 393.500 492.941 409.083 L 492.914 424.666 494.487 435.260 C 495.352 441.087, 496.980 449.364, 498.104 453.655 C 499.227 457.945, 501.630 465.297, 503.443 469.991 C 505.256 474.686, 508.611 482.248, 510.898 486.797 C 513.185 491.345, 517.129 498.314, 519.663 502.283 C 522.196 506.252, 526.553 512.425, 529.344 516 C 532.135 519.575, 538.262 526.482, 542.959 531.349 C 547.657 536.216, 554.875 543.019, 559 546.467 C 563.125 549.915, 570.325 555.222, 575 558.262 L 583.500 563.788 593.168 567.914 C 598.486 570.183, 606.320 572.931, 610.578 574.020 L 618.320 576 625.910 575.987 L 633.500 575.973 641.850 573.067 L 650.199 570.161 656.850 565.732 C 660.507 563.296, 665.896 559.255, 668.824 556.751 C 671.753 554.247, 677.525 548.463, 681.652 543.898 C 685.779 539.333, 692.334 530.851, 696.219 525.049 C 700.104 519.247, 705.924 509.142, 709.151 502.593 C 712.379 496.045, 714.854 490.521, 714.652 490.319 C 714.450 490.117, 711.633 490.650, 708.392 491.504 L 702.500 493.057 698.500 492.432 C 696.300 492.089, 692.602 490.716, 690.282 489.381 L 686.064 486.953 683.017 482.525 C 681.341 480.089, 679.089 476.040, 678.011 473.526 C 676.933 471.012, 675.307 465.281, 674.398 460.792 L 672.744 452.628 673.291 437.564 L 673.839 422.500 675.952 414 L 678.065 405.500 682.114 397.298 L 686.163 389.097 690.117 384.604 L 694.071 380.112 699.530 377.442 L 704.988 374.771 709.467 375.443 L 713.945 376.114 718.689 379.307 L 723.433 382.500 726.717 386.828 L 730 391.155 729.980 389.328 C 729.969 388.322, 729.520 384.457, 728.983 380.738 C 728.445 377.019, 726.869 370.724, 725.480 366.750 C 724.091 362.775, 721.503 357.102, 719.728 354.142 L 716.500 348.761 709.500 342.316 L 702.500 335.872 695.500 332.517 C 691.650 330.672, 685.489 328.124, 681.809 326.855 C 678.129 325.586, 674.831 324.835, 674.480 325.186 C 674.129 325.537, 673.213 328.677, 672.443 332.162 C 671.674 335.648, 668.508 350.193, 665.408 364.484 C 662.309 378.776, 659.384 391.490, 658.909 392.740 L 658.045 395.011 654.594 396.656 L 651.143 398.302 648.179 397.074 L 645.214 395.846 638.357 381.427 L 631.500 367.007 630.295 369.754 C 629.633 371.264, 627.183 376.775, 624.852 382 C 622.520 387.225, 619.794 392.703, 618.793 394.174 L 616.973 396.847 614.059 397.487 L 611.146 398.127 608.181 396.594 L 605.217 395.061 604.127 391.935 C 603.528 390.216, 600.020 370.628, 596.331 348.405 L 589.624 308 580.062 308.133 C 574.803 308.206, 566.675 308.662, 562 309.147 M 614.830 331.748 C 616.158 343.162, 617.439 353.162, 617.676 353.972 L 618.107 355.443 621.340 348.472 C 623.119 344.637, 625.353 340.044, 626.305 338.264 L 628.036 335.029 630.531 334.403 L 633.026 333.777 634.682 335.138 C 635.592 335.887, 638.489 340.983, 641.119 346.462 L 645.900 356.425 646.387 354.962 C 646.654 354.158, 647.567 349, 648.415 343.500 C 649.263 338, 650.590 330.232, 651.364 326.239 L 652.772 318.977 652.090 318.556 C 651.716 318.324, 646.929 317.245, 641.454 316.157 C 635.980 315.069, 627.900 313.661, 623.500 313.028 C 619.100 312.396, 614.806 311.680, 613.957 311.437 L 612.414 310.997 614.830 331.748 M 310.500 370.145 C 304.450 372.344, 292.566 376.134, 284.091 378.568 C 275.616 381.002, 264.704 383.782, 259.842 384.746 L 251.001 386.500 251.001 387.662 C 251 388.302, 252.822 396.083, 255.049 404.954 C 257.277 413.825, 260.914 426.577, 263.133 433.291 C 265.351 440.006, 269.443 451.125, 272.225 458 C 275.008 464.875, 280.789 477.519, 285.072 486.097 C 289.355 494.676, 295.655 506.376, 299.072 512.097 C 302.489 517.819, 309.104 528.125, 313.773 535 C 318.441 541.875, 325.425 551.550, 329.294 556.500 C 333.162 561.450, 339.282 568.875, 342.893 573 C 346.505 577.125, 352.618 583.812, 356.480 587.861 C 360.341 591.909, 368.225 599.360, 374 604.420 C 379.775 609.479, 386.117 614.829, 388.094 616.309 C 390.071 617.789, 392.178 619, 392.776 619 C 393.373 619, 396.391 615.538, 399.481 611.307 C 402.571 607.076, 407.271 599.988, 409.925 595.557 C 412.579 591.126, 416.929 582.611, 419.592 576.635 L 424.434 565.770 420.491 562.635 C 418.323 560.911, 413.671 556.905, 410.155 553.733 C 406.638 550.561, 400.392 544.261, 396.276 539.733 C 392.160 535.205, 385.980 527.900, 382.542 523.500 C 379.105 519.100, 373.831 511.900, 370.823 507.500 C 367.815 503.100, 363.006 495.517, 360.135 490.649 C 357.265 485.780, 352.694 477.368, 349.978 471.955 C 347.261 466.543, 342.978 457.026, 340.460 450.807 C 337.942 444.588, 334.602 435.201, 333.038 429.947 C 331.474 424.693, 329.220 415.918, 328.029 410.447 C 326.838 404.976, 325.219 395.342, 324.432 389.038 C 323.644 382.734, 323 374.971, 323 371.788 L 323 366 322.250 366.074 C 321.837 366.115, 316.550 367.947, 310.500 370.145 M 536.757 368.046 C 534.699 368.552, 531.212 370.104, 529.008 371.495 L 525.002 374.024 521.561 378.762 L 518.121 383.500 515.927 390 L 513.734 396.500 513.274 407 L 512.814 417.500 514.374 427 C 515.231 432.225, 516.890 439.406, 518.059 442.958 C 519.228 446.510, 521.771 452.585, 523.709 456.458 C 525.647 460.331, 529.164 466.221, 531.523 469.547 C 533.882 472.873, 538.739 478.333, 542.318 481.681 L 548.824 487.767 554.406 490.498 L 559.989 493.229 566.492 493.751 L 572.995 494.273 577.651 492.495 L 582.307 490.717 586.235 487.169 L 590.163 483.620 593.003 477.994 L 595.843 472.368 597.422 464.726 L 599 457.084 599 447.949 L 599 438.814 596.939 428.700 C 595.805 423.138, 593.598 415.289, 592.033 411.259 C 590.468 407.229, 587.381 400.910, 585.172 397.216 C 582.964 393.522, 578.865 387.945, 576.063 384.822 L 570.969 379.145 564.884 375.081 L 558.799 371.018 553.949 369.578 C 551.282 368.786, 547.165 367.910, 544.800 367.632 L 540.500 367.126 536.757 368.046 M 164.944 434.564 C 160.850 439.281, 154.865 446.821, 151.644 451.320 C 148.423 455.819, 143.322 463.682, 140.309 468.794 C 137.296 473.906, 132.782 482.414, 130.278 487.700 L 125.725 497.312 129.455 509.406 C 131.506 516.058, 135.225 526.675, 137.719 533 C 140.213 539.325, 145.846 551.681, 150.237 560.458 C 154.628 569.235, 161.779 582.145, 166.129 589.148 C 170.480 596.150, 177.909 607.194, 182.640 613.690 C 187.371 620.185, 195.572 630.675, 200.865 637 C 206.158 643.325, 217.916 655.937, 226.995 665.027 L 243.500 681.554 255 690.759 L 266.500 699.965 268.639 699.982 C 269.815 699.992, 276.115 698.163, 282.639 695.919 C 289.162 693.674, 299.908 689.255, 306.518 686.099 C 313.128 682.942, 321.790 678.459, 325.768 676.136 C 329.746 673.812, 332.990 671.594, 332.979 671.206 C 332.967 670.818, 331.279 669.313, 329.229 667.862 C 327.178 666.411, 321.450 662.006, 316.500 658.073 C 311.550 654.139, 301.990 645.733, 295.254 639.392 C 288.519 633.050, 278.105 622.276, 272.111 615.448 C 266.117 608.620, 257.145 597.696, 252.173 591.174 C 247.202 584.651, 239.039 573.170, 234.034 565.660 C 229.029 558.151, 222.213 547.168, 218.888 541.253 C 215.562 535.339, 209.326 523.300, 205.030 514.500 C 200.733 505.700, 195.084 493.100, 192.476 486.500 C 189.867 479.900, 185.381 467.300, 182.506 458.500 C 179.632 449.700, 176.484 439.125, 175.512 435 C 174.540 430.875, 173.439 427.160, 173.066 426.744 L 172.388 425.988 164.944 434.564 M 493.758 637.837 L 453.016 661.500 453.010 709.500 L 453.005 757.500 493.747 781 C 516.155 793.925, 535.207 804.500, 536.084 804.500 C 536.961 804.500, 555.976 793.956, 578.339 781.068 L 619 757.636 619 709.530 L 619 661.423 578.386 637.962 C 556.048 625.058, 537.035 614.427, 536.136 614.337 L 534.500 614.173 493.758 637.837 M 105.030 624.500 C 105.025 630, 105.479 639.900, 106.040 646.500 C 106.600 653.100, 107.725 663.450, 108.538 669.500 C 109.351 675.550, 110.719 684.300, 111.577 688.944 C 112.435 693.588, 113.573 698.203, 114.106 699.198 L 115.075 701.009 121.122 704.062 C 124.448 705.741, 131.294 708.464, 136.335 710.114 L 145.500 713.115 155 714.551 C 160.225 715.342, 167.758 715.991, 171.739 715.994 L 178.978 716 170.852 708.250 C 166.382 703.987, 158.625 695.732, 153.613 689.905 C 148.601 684.078, 140.867 674.178, 136.426 667.905 C 131.985 661.632, 126.274 653.125, 123.735 649 C 121.197 644.875, 115.951 635.425, 112.079 628 L 105.039 614.500 105.030 624.500 M 527.045 651.092 C 524.595 651.573, 520.264 653.104, 517.421 654.495 L 512.251 657.024 507.718 661.870 C 505.225 664.535, 502.242 668.566, 501.088 670.827 C 499.934 673.089, 498.318 677.522, 497.495 680.680 C 496.673 683.837, 496 687.451, 496 688.710 L 496 691 508.361 691 L 520.721 691 521.322 685.931 L 521.922 680.862 524.106 677.328 C 525.308 675.384, 527.688 672.942, 529.395 671.901 L 532.500 670.007 537.602 670.004 L 542.704 670 546.102 672.287 L 549.500 674.573 550.816 678.537 L 552.133 682.500 551.540 686.515 C 551.214 688.724, 550.172 691.711, 549.224 693.154 C 548.276 694.597, 543.904 698.885, 539.510 702.683 L 531.519 709.589 528.697 715.108 L 525.874 720.627 525.293 728.314 L 524.711 736 536.356 736 L 548 736 548 731.450 L 548 726.901 549.418 724.200 C 550.197 722.715, 552.560 719.876, 554.668 717.891 C 556.775 715.906, 561.038 712.402, 564.139 710.104 L 569.779 705.927 572.542 701.939 L 575.306 697.952 576.653 692.758 C 577.394 689.901, 578 685.429, 578 682.820 L 578 678.075 575.967 672.640 L 573.933 667.206 570.072 662.819 L 566.211 658.433 561.136 655.670 L 556.061 652.908 549.280 651.471 C 545.551 650.681, 540.025 650.076, 537 650.127 C 533.975 650.178, 529.495 650.612, 527.045 651.092 M 527.357 749.312 L 523.743 752.624 523.316 757.562 L 522.889 762.500 524.966 765.810 L 527.044 769.120 530.490 770.560 C 532.385 771.352, 534.970 772, 536.233 772 C 537.497 772, 540.064 771.178, 541.938 770.173 L 545.345 768.345 547.173 764.938 L 549 761.531 548.996 758.516 L 548.993 755.500 547.040 752.299 L 545.088 749.097 542.094 747.549 L 539.099 746 535.035 746 L 530.971 746 527.357 749.312" stroke="none" fill="#fccd1f" fill-rule="evenodd"/><path d="M 135 57.555 L 128.500 58.951 120 63.116 L 111.500 67.281 103 75.890 L 94.500 84.500 90.810 92 L 87.119 99.500 84.871 108 L 82.623 116.500 82.617 130.500 L 82.612 144.500 84.273 153.558 C 85.186 158.541, 87.266 166.695, 88.895 171.678 C 90.524 176.662, 93.676 184.535, 95.900 189.172 C 98.124 193.810, 102.429 201.564, 105.467 206.402 C 108.504 211.241, 113.923 218.956, 117.509 223.548 C 121.094 228.139, 127.587 235.657, 131.938 240.254 L 139.850 248.611 122.398 248.179 L 104.947 247.747 93.723 248.977 L 82.500 250.207 73.047 252.653 L 63.594 255.099 57.547 258.296 L 51.500 261.493 45.874 266.997 L 40.249 272.500 37.973 278.500 L 35.697 284.500 35.254 293.500 L 34.811 302.500 36.362 309.126 C 37.216 312.770, 39.117 318.395, 40.587 321.626 C 42.057 324.857, 45.491 330.739, 48.218 334.697 L 53.176 341.893 61.588 349.969 L 69.999 358.044 78.508 363.591 C 83.188 366.641, 90.804 370.887, 95.433 373.025 C 100.062 375.164, 108.555 378.488, 114.308 380.413 C 120.060 382.337, 129.431 384.827, 135.133 385.945 C 140.835 387.063, 149.550 388.429, 154.500 388.980 C 159.450 389.532, 166.762 389.987, 170.750 389.992 L 178 390 177.976 390.750 C 177.963 391.163, 176.135 392.845, 173.912 394.490 C 171.690 396.134, 164.749 402.659, 158.487 408.990 C 152.225 415.320, 144.540 423.650, 141.411 427.500 C 138.281 431.350, 133.122 438.363, 129.946 443.084 C 126.771 447.804, 121.644 456.233, 118.555 461.813 C 115.465 467.394, 110.704 476.911, 107.973 482.962 C 105.243 489.014, 100.559 501.285, 97.565 510.232 C 94.570 519.180, 90.988 531.675, 89.604 538 C 88.219 544.325, 86.182 555.800, 85.076 563.500 L 83.065 577.500 81.966 597 L 80.866 616.500 81.487 628 C 81.828 634.325, 82.557 644.900, 83.108 651.500 C 83.659 658.100, 85.009 670.025, 86.110 678 C 87.210 685.975, 89.661 699.625, 91.558 708.334 C 93.454 717.043, 96.596 729.868, 98.539 736.834 C 100.483 743.800, 105.461 759.715, 109.603 772.199 L 117.133 794.899 119.051 797.337 L 120.968 799.775 123.638 800.445 L 126.307 801.115 129.084 799.965 L 131.860 798.815 133.346 795.658 C 134.164 793.921, 136.649 786.425, 138.868 779 C 141.087 771.575, 144.761 760.100, 147.032 753.500 C 149.304 746.900, 151.374 740.825, 151.633 740 L 152.104 738.500 175.802 738.420 L 199.500 738.341 212.500 736.592 C 219.650 735.631, 230.225 733.957, 236 732.873 C 241.775 731.789, 252.483 729.344, 259.795 727.440 C 267.108 725.536, 278.679 721.953, 285.510 719.477 C 292.341 717.001, 303.364 712.546, 310.005 709.578 C 316.647 706.610, 327.597 700.957, 334.337 697.016 C 341.078 693.075, 351.073 686.663, 356.547 682.767 C 362.021 678.871, 371.450 671.533, 377.500 666.460 C 383.550 661.388, 392.108 653.471, 396.518 648.869 C 400.928 644.266, 406.969 637.575, 409.941 634 C 412.914 630.425, 418.937 622.100, 423.325 615.500 L 431.304 603.500 437.034 591.500 C 440.185 584.900, 443.326 577.700, 444.012 575.500 C 444.699 573.300, 445.647 571.010, 446.119 570.412 C 446.590 569.813, 449.406 568.780, 452.375 568.115 L 457.774 566.907 469.637 561.012 L 481.500 555.116 490.048 548.643 C 494.750 545.083, 501.486 539.386, 505.018 535.983 L 511.439 529.796 515.441 534.648 C 517.641 537.317, 523.505 543.708, 528.471 548.852 C 533.437 553.995, 541.100 561.107, 545.500 564.656 C 549.900 568.204, 556.650 573.201, 560.500 575.758 C 564.350 578.316, 572.170 582.789, 577.878 585.699 L 588.256 590.988 597.450 593.933 L 606.643 596.878 615.518 598.059 L 624.394 599.240 631.810 598.568 L 639.225 597.896 646.863 595.474 L 654.500 593.051 662.196 588.654 C 666.429 586.235, 672.279 582.374, 675.196 580.073 C 678.113 577.772, 684.710 571.752, 689.855 566.695 C 695.001 561.638, 702.031 553.900, 705.478 549.500 C 708.925 545.100, 714.238 537.667, 717.285 532.981 C 720.332 528.296, 725.361 519.379, 728.461 513.167 C 731.561 506.954, 735.589 498.172, 737.411 493.650 C 739.234 489.129, 741.911 481.395, 743.361 476.465 C 744.810 471.534, 747.107 462.135, 748.465 455.578 C 749.824 449.021, 751.461 438.064, 752.104 431.228 L 753.272 418.801 752.707 399.650 L 752.141 380.500 749.667 370 C 748.307 364.225, 746.299 357.245, 745.206 354.490 C 744.113 351.734, 741.550 346.633, 739.512 343.155 L 735.805 336.831 729.272 329.905 L 722.739 322.980 715.965 318.476 C 712.239 316, 705.882 312.465, 701.838 310.622 C 697.794 308.779, 691.226 306.222, 687.243 304.939 C 683.259 303.656, 680 302.300, 680 301.926 C 680 301.552, 682.185 294.779, 684.857 286.873 C 687.528 278.968, 691.390 268.450, 693.439 263.500 C 695.489 258.550, 699.799 249.100, 703.018 242.500 C 706.237 235.900, 712.001 225.775, 715.827 220 C 719.654 214.225, 725.765 206.020, 729.408 201.766 C 733.051 197.512, 739.478 191.092, 743.690 187.498 C 747.902 183.904, 753.768 179.357, 756.726 177.393 C 759.685 175.430, 766.260 171.855, 771.337 169.450 L 780.570 165.076 790.035 162.461 L 799.500 159.846 813.972 159.277 L 828.445 158.709 831.222 155.931 L 834 153.154 834 147.633 L 834 142.112 831.589 139.306 L 829.178 136.500 816.735 136.172 L 804.292 135.843 795.396 137.380 C 790.503 138.225, 782.450 140.079, 777.500 141.500 L 768.500 144.083 758.500 148.940 L 748.500 153.798 740.228 159.715 C 735.678 162.969, 728.762 168.491, 724.858 171.987 C 720.955 175.482, 714.358 182.427, 710.198 187.421 C 706.039 192.414, 699.844 200.775, 696.432 206 C 693.020 211.225, 687.512 220.675, 684.193 227 C 680.874 233.325, 675.917 243.900, 673.177 250.500 C 670.438 257.100, 665.902 269.473, 663.098 277.995 C 660.294 286.517, 658 294.055, 658 294.745 C 658 295.435, 657.586 296, 657.079 296 C 656.572 296, 652.239 295.069, 647.450 293.932 C 642.661 292.794, 631.938 290.863, 623.621 289.640 L 608.500 287.417 607.239 281.958 C 606.546 278.956, 604.350 269.750, 602.360 261.500 C 600.370 253.250, 596.799 240.827, 594.425 233.894 C 592.051 226.960, 588.032 216.546, 585.494 210.750 C 582.956 204.955, 578.524 196.099, 575.645 191.071 C 572.767 186.043, 567.507 177.802, 563.956 172.757 C 560.405 167.713, 553.450 159.342, 548.500 154.154 C 543.550 148.966, 535.900 141.921, 531.500 138.498 C 527.100 135.075, 519.826 130.150, 515.335 127.552 L 507.171 122.829 498.835 119.928 L 490.500 117.027 485.500 117.045 L 480.500 117.064 478.913 118.282 C 478.041 118.952, 476.803 120.483, 476.163 121.684 L 475 123.869 475 128.845 L 475 133.822 477.969 136.320 L 480.938 138.819 486.219 140.536 C 489.124 141.480, 494.609 143.795, 498.410 145.679 C 502.210 147.563, 507.610 150.630, 510.410 152.494 C 513.209 154.359, 518.521 158.381, 522.214 161.434 C 525.906 164.486, 531.913 170.475, 535.563 174.742 C 539.212 179.009, 545.049 186.775, 548.534 192 L 554.870 201.500 561.381 215 C 564.963 222.425, 569.745 233.900, 572.008 240.500 C 574.271 247.100, 577.895 259.667, 580.062 268.426 C 582.228 277.185, 584 284.655, 584 285.025 C 584 285.395, 578.263 285.967, 571.250 286.296 C 564.237 286.625, 554.507 287.605, 549.627 288.474 L 540.754 290.053 531.951 293.360 C 527.109 295.178, 520.561 298.204, 517.398 300.083 L 511.649 303.500 504.227 310.601 L 496.806 317.703 491.480 314.818 C 488.551 313.231, 482.898 310.826, 478.917 309.472 C 474.937 308.118, 466.915 306.086, 461.090 304.955 L 450.500 302.899 438.754 302.297 L 427.008 301.695 421.848 292.098 C 419.010 286.819, 412.969 276.353, 408.423 268.839 C 403.878 261.326, 396.454 249.626, 391.925 242.839 C 387.397 236.053, 379.842 225.100, 375.138 218.500 C 370.433 211.900, 363.439 202.450, 359.596 197.500 C 355.753 192.550, 347.409 182.448, 341.054 175.051 C 334.699 167.654, 323.200 155.322, 315.500 147.646 C 307.800 139.970, 295.152 128.247, 287.394 121.595 C 279.635 114.943, 267.904 105.580, 261.324 100.788 C 254.745 95.997, 244.668 89.112, 238.931 85.489 C 233.194 81.865, 222.650 75.985, 215.500 72.421 L 202.500 65.941 192 62.551 C 186.225 60.687, 177.738 58.450, 173.140 57.581 L 164.779 56 153.140 56.079 L 141.500 56.159 135 57.555 M 140.156 79.536 C 136.666 80.293, 131.868 81.854, 129.493 83.003 C 127.118 84.153, 123.162 86.865, 120.702 89.031 C 118.242 91.197, 114.778 95.229, 113.006 97.990 L 109.784 103.012 107.419 110.458 L 105.055 117.903 104.403 125.721 L 103.751 133.539 104.900 142.176 C 105.532 146.926, 106.949 154.248, 108.049 158.447 C 109.149 162.645, 111.745 170.015, 113.818 174.824 C 115.891 179.633, 119.737 187.108, 122.364 191.436 C 124.992 195.763, 129.892 202.948, 133.254 207.402 C 136.616 211.856, 145.022 221.154, 151.933 228.064 C 158.845 234.975, 168.325 243.693, 173 247.437 C 177.675 251.182, 187.125 257.975, 194 262.533 C 200.875 267.090, 212.514 274.258, 219.864 278.460 C 227.214 282.663, 239.364 289.173, 246.864 292.928 C 254.364 296.682, 265.450 302.009, 271.500 304.765 C 277.550 307.520, 287.450 311.395, 293.500 313.375 C 299.550 315.355, 309.675 318.319, 316 319.963 C 322.325 321.607, 331.975 323.870, 337.444 324.993 C 342.913 326.116, 351.509 327.494, 356.546 328.056 L 365.705 329.077 375.103 324.498 C 380.271 321.979, 388.325 318.745, 393 317.310 C 397.675 315.876, 402.288 314.024, 403.250 313.196 C 404.212 312.368, 405 310.845, 405 309.812 C 405 308.779, 403.822 305.609, 402.383 302.769 C 400.943 299.928, 396.152 291.505, 391.736 284.052 C 387.319 276.598, 378.642 263.014, 372.453 253.864 C 366.263 244.714, 357.262 231.889, 352.450 225.364 C 347.638 218.839, 340.749 209.900, 337.140 205.500 C 333.531 201.100, 325.325 191.650, 318.904 184.500 C 312.484 177.350, 301.216 165.627, 293.865 158.449 C 286.514 151.270, 275.775 141.363, 270 136.432 C 264.225 131.501, 255.821 124.667, 251.325 121.245 C 246.828 117.823, 238.278 111.835, 232.325 107.938 C 226.371 104.041, 215.203 97.721, 207.507 93.895 L 193.514 86.938 184.507 84.054 C 179.553 82.468, 171.738 80.457, 167.140 79.585 L 158.779 78 152.640 78.079 C 149.263 78.123, 143.645 78.779, 140.156 79.536 M 95.500 270.676 C 93.850 270.883, 88.940 271.744, 84.589 272.589 L 76.678 274.126 70.589 276.897 L 64.500 279.668 60.807 283.774 L 57.113 287.881 56.412 291.615 L 55.712 295.349 56.835 301.425 L 57.959 307.500 61.433 314.500 L 64.908 321.500 70.992 328.204 C 74.339 331.892, 80.547 337.522, 84.788 340.716 C 89.030 343.910, 96.100 348.381, 100.500 350.652 C 104.900 352.923, 111.798 355.958, 115.828 357.397 C 119.859 358.836, 126.609 360.933, 130.828 362.057 C 135.048 363.181, 144.350 365.006, 151.500 366.113 L 164.500 368.126 186.500 368.699 L 208.500 369.273 222 368.097 C 229.425 367.450, 240.900 366.016, 247.500 364.911 C 254.100 363.805, 264.225 361.750, 270 360.346 C 275.775 358.941, 284.100 356.673, 288.500 355.306 C 292.900 353.939, 301.225 350.980, 307 348.730 C 312.775 346.479, 317.695 344.487, 317.933 344.303 C 318.172 344.118, 317.947 343.555, 317.433 343.051 C 316.920 342.548, 309.525 340.033, 301 337.463 C 292.475 334.893, 280.775 330.997, 275 328.805 C 269.225 326.613, 258.650 322.118, 251.500 318.816 C 244.350 315.514, 232.650 309.655, 225.500 305.795 C 218.350 301.936, 203.854 293.609, 193.287 287.290 L 174.074 275.803 163.287 273.963 C 157.354 272.952, 147.100 271.651, 140.500 271.072 C 133.900 270.494, 121.750 270.083, 113.500 270.160 C 105.250 270.237, 97.150 270.469, 95.500 270.676 M 562 309.147 C 557.325 309.631, 550.141 310.947, 546.035 312.070 C 541.929 313.193, 535.975 315.495, 532.802 317.186 L 527.034 320.261 518.596 329.014 L 510.158 337.766 505.626 347.133 L 501.094 356.500 498.495 365.500 C 497.066 370.450, 495.238 378.775, 494.433 384 L 492.968 393.500 492.941 409.083 L 492.914 424.666 494.487 435.260 C 495.352 441.087, 496.980 449.364, 498.104 453.655 C 499.227 457.945, 501.630 465.297, 503.443 469.991 C 505.256 474.686, 508.611 482.248, 510.898 486.797 C 513.185 491.345, 517.129 498.314, 519.663 502.283 C 522.196 506.252, 526.553 512.425, 529.344 516 C 532.135 519.575, 538.262 526.482, 542.959 531.349 C 547.657 536.216, 554.875 543.019, 559 546.467 C 563.125 549.915, 570.325 555.222, 575 558.262 L 583.500 563.788 593.168 567.914 C 598.486 570.183, 606.320 572.931, 610.578 574.020 L 618.320 576 625.910 575.987 L 633.500 575.973 641.850 573.067 L 650.199 570.161 656.850 565.732 C 660.507 563.296, 665.896 559.255, 668.824 556.751 C 671.753 554.247, 677.525 548.463, 681.652 543.898 C 685.779 539.333, 692.334 530.851, 696.219 525.049 C 700.104 519.247, 705.924 509.142, 709.151 502.593 C 712.379 496.045, 714.854 490.521, 714.652 490.319 C 714.450 490.117, 711.633 490.650, 708.392 491.504 L 702.500 493.057 698.500 492.432 C 696.300 492.089, 692.602 490.716, 690.282 489.381 L 686.064 486.953 683.017 482.525 C 681.341 480.089, 679.089 476.040, 678.011 473.526 C 676.933 471.012, 675.307 465.281, 674.398 460.792 L 672.744 452.628 673.291 437.564 L 673.839 422.500 675.952 414 L 678.065 405.500 682.114 397.298 L 686.163 389.097 690.117 384.604 L 694.071 380.112 699.530 377.442 L 704.988 374.771 709.467 375.443 L 713.945 376.114 718.689 379.307 L 723.433 382.500 726.717 386.828 L 730 391.155 729.980 389.328 C 729.969 388.322, 729.520 384.457, 728.983 380.738 C 728.445 377.019, 726.869 370.724, 725.480 366.750 C 724.091 362.775, 721.503 357.102, 719.728 354.142 L 716.500 348.761 709.500 342.316 L 702.500 335.872 695.500 332.517 C 691.650 330.672, 685.489 328.124, 681.809 326.855 C 678.129 325.586, 674.831 324.835, 674.480 325.186 C 674.129 325.537, 673.213 328.677, 672.443 332.162 C 671.674 335.648, 668.508 350.193, 665.408 364.484 C 662.309 378.776, 659.384 391.490, 658.909 392.740 L 658.045 395.011 654.594 396.656 L 651.143 398.302 648.179 397.074 L 645.214 395.846 638.357 381.427 L 631.500 367.007 630.295 369.754 C 629.633 371.264, 627.183 376.775, 624.852 382 C 622.520 387.225, 619.794 392.703, 618.793 394.174 L 616.973 396.847 614.059 397.487 L 611.146 398.127 608.181 396.594 L 605.217 395.061 604.127 391.935 C 603.528 390.216, 600.020 370.628, 596.331 348.405 L 589.624 308 580.062 308.133 C 574.803 308.206, 566.675 308.662, 562 309.147 M 614.830 331.748 C 616.158 343.162, 617.439 353.162, 617.676 353.972 L 618.107 355.443 621.340 348.472 C 623.119 344.637, 625.353 340.044, 626.305 338.264 L 628.036 335.029 630.531 334.403 L 633.026 333.777 634.682 335.138 C 635.592 335.887, 638.489 340.983, 641.119 346.462 L 645.900 356.425 646.387 354.962 C 646.654 354.158, 647.567 349, 648.415 343.500 C 649.263 338, 650.590 330.232, 651.364 326.239 L 652.772 318.977 652.090 318.556 C 651.716 318.324, 646.929 317.245, 641.454 316.157 C 635.980 315.069, 627.900 313.661, 623.500 313.028 C 619.100 312.396, 614.806 311.680, 613.957 311.437 L 612.414 310.997 614.830 331.748 M 310.500 370.145 C 304.450 372.344, 292.566 376.134, 284.091 378.568 C 275.616 381.002, 264.704 383.782, 259.842 384.746 L 251.001 386.500 251.001 387.662 C 251 388.302, 252.822 396.083, 255.049 404.954 C 257.277 413.825, 260.914 426.577, 263.133 433.291 C 265.351 440.006, 269.443 451.125, 272.225 458 C 275.008 464.875, 280.789 477.519, 285.072 486.097 C 289.355 494.676, 295.655 506.376, 299.072 512.097 C 302.489 517.819, 309.104 528.125, 313.773 535 C 318.441 541.875, 325.425 551.550, 329.294 556.500 C 333.162 561.450, 339.282 568.875, 342.893 573 C 346.505 577.125, 352.618 583.812, 356.480 587.861 C 360.341 591.909, 368.225 599.360, 374 604.420 C 379.775 609.479, 386.117 614.829, 388.094 616.309 C 390.071 617.789, 392.178 619, 392.776 619 C 393.373 619, 396.391 615.538, 399.481 611.307 C 402.571 607.076, 407.271 599.988, 409.925 595.557 C 412.579 591.126, 416.929 582.611, 419.592 576.635 L 424.434 565.770 420.491 562.635 C 418.323 560.911, 413.671 556.905, 410.155 553.733 C 406.638 550.561, 400.392 544.261, 396.276 539.733 C 392.160 535.205, 385.980 527.900, 382.542 523.500 C 379.105 519.100, 373.831 511.900, 370.823 507.500 C 367.815 503.100, 363.006 495.517, 360.135 490.649 C 357.265 485.780, 352.694 477.368, 349.978 471.955 C 347.261 466.543, 342.978 457.026, 340.460 450.807 C 337.942 444.588, 334.602 435.201, 333.038 429.947 C 331.474 424.693, 329.220 415.918, 328.029 410.447 C 326.838 404.976, 325.219 395.342, 324.432 389.038 C 323.644 382.734, 323 374.971, 323 371.788 L 323 366 322.250 366.074 C 321.837 366.115, 316.550 367.947, 310.500 370.145 M 536.757 368.046 C 534.699 368.552, 531.212 370.104, 529.008 371.495 L 525.002 374.024 521.561 378.762 L 518.121 383.500 515.927 390 L 513.734 396.500 513.274 407 L 512.814 417.500 514.374 427 C 515.231 432.225, 516.890 439.406, 518.059 442.958 C 519.228 446.510, 521.771 452.585, 523.709 456.458 C 525.647 460.331, 529.164 466.221, 531.523 469.547 C 533.882 472.873, 538.739 478.333, 542.318 481.681 L 548.824 487.767 554.406 490.498 L 559.989 493.229 566.492 493.751 L 572.995 494.273 577.651 492.495 L 582.307 490.717 586.235 487.169 L 590.163 483.620 593.003 477.994 L 595.843 472.368 597.422 464.726 L 599 457.084 599 447.949 L 599 438.814 596.939 428.700 C 595.805 423.138, 593.598 415.289, 592.033 411.259 C 590.468 407.229, 587.381 400.910, 585.172 397.216 C 582.964 393.522, 578.865 387.945, 576.063 384.822 L 570.969 379.145 564.884 375.081 L 558.799 371.018 553.949 369.578 C 551.282 368.786, 547.165 367.910, 544.800 367.632 L 540.500 367.126 536.757 368.046 M 164.944 434.564 C 160.850 439.281, 154.865 446.821, 151.644 451.320 C 148.423 455.819, 143.322 463.682, 140.309 468.794 C 137.296 473.906, 132.782 482.414, 130.278 487.700 L 125.725 497.312 129.455 509.406 C 131.506 516.058, 135.225 526.675, 137.719 533 C 140.213 539.325, 145.846 551.681, 150.237 560.458 C 154.628 569.235, 161.779 582.145, 166.129 589.148 C 170.480 596.150, 177.909 607.194, 182.640 613.690 C 187.371 620.185, 195.572 630.675, 200.865 637 C 206.158 643.325, 217.916 655.937, 226.995 665.027 L 243.500 681.554 255 690.759 L 266.500 699.965 268.639 699.982 C 269.815 699.992, 276.115 698.163, 282.639 695.919 C 289.162 693.674, 299.908 689.255, 306.518 686.099 C 313.128 682.942, 321.790 678.459, 325.768 676.136 C 329.746 673.812, 332.990 671.594, 332.979 671.206 C 332.967 670.818, 331.279 669.313, 329.229 667.862 C 327.178 666.411, 321.450 662.006, 316.500 658.073 C 311.550 654.139, 301.990 645.733, 295.254 639.392 C 288.519 633.050, 278.105 622.276, 272.111 615.448 C 266.117 608.620, 257.145 597.696, 252.173 591.174 C 247.202 584.651, 239.039 573.170, 234.034 565.660 C 229.029 558.151, 222.213 547.168, 218.888 541.253 C 215.562 535.339, 209.326 523.300, 205.030 514.500 C 200.733 505.700, 195.084 493.100, 192.476 486.500 C 189.867 479.900, 185.381 467.300, 182.506 458.500 C 179.632 449.700, 176.484 439.125, 175.512 435 C 174.540 430.875, 173.439 427.160, 173.066 426.744 L 172.388 425.988 164.944 434.564 M 484.253 619.828 L 433.006 649.500 433.003 709.501 L 433 769.501 484.557 799.257 L 536.113 829.013 587.807 799.160 L 639.500 769.307 639.500 709.514 L 639.500 649.721 588.500 620.246 C 560.450 604.034, 537.050 590.632, 536.500 590.463 C 535.950 590.294, 512.439 603.508, 484.253 619.828 M 493.758 637.837 L 453.016 661.500 453.010 709.500 L 453.005 757.500 493.747 781 C 516.155 793.925, 535.207 804.500, 536.084 804.500 C 536.961 804.500, 555.976 793.956, 578.339 781.068 L 619 757.636 619 709.530 L 619 661.423 578.386 637.962 C 556.048 625.058, 537.035 614.427, 536.136 614.337 L 534.500 614.173 493.758 637.837 M 105.030 624.500 C 105.025 630, 105.479 639.900, 106.040 646.500 C 106.600 653.100, 107.725 663.450, 108.538 669.500 C 109.351 675.550, 110.719 684.300, 111.577 688.944 C 112.435 693.588, 113.573 698.203, 114.106 699.198 L 115.075 701.009 121.122 704.062 C 124.448 705.741, 131.294 708.464, 136.335 710.114 L 145.500 713.115 155 714.551 C 160.225 715.342, 167.758 715.991, 171.739 715.994 L 178.978 716 170.852 708.250 C 166.382 703.987, 158.625 695.732, 153.613 689.905 C 148.601 684.078, 140.867 674.178, 136.426 667.905 C 131.985 661.632, 126.274 653.125, 123.735 649 C 121.197 644.875, 115.951 635.425, 112.079 628 L 105.039 614.500 105.030 624.500 M 527.045 651.092 C 524.595 651.573, 520.264 653.104, 517.421 654.495 L 512.251 657.024 507.718 661.870 C 505.225 664.535, 502.242 668.566, 501.088 670.827 C 499.934 673.089, 498.318 677.522, 497.495 680.680 C 496.673 683.837, 496 687.451, 496 688.710 L 496 691 508.361 691 L 520.721 691 521.322 685.931 L 521.922 680.862 524.106 677.328 C 525.308 675.384, 527.688 672.942, 529.395 671.901 L 532.500 670.007 537.602 670.004 L 542.704 670 546.102 672.287 L 549.500 674.573 550.816 678.537 L 552.133 682.500 551.540 686.515 C 551.214 688.724, 550.172 691.711, 549.224 693.154 C 548.276 694.597, 543.904 698.885, 539.510 702.683 L 531.519 709.589 528.697 715.108 L 525.874 720.627 525.293 728.314 L 524.711 736 536.356 736 L 548 736 548 731.450 L 548 726.901 549.418 724.200 C 550.197 722.715, 552.560 719.876, 554.668 717.891 C 556.775 715.906, 561.038 712.402, 564.139 710.104 L 569.779 705.927 572.542 701.939 L 575.306 697.952 576.653 692.758 C 577.394 689.901, 578 685.429, 578 682.820 L 578 678.075 575.967 672.640 L 573.933 667.206 570.072 662.819 L 566.211 658.433 561.136 655.670 L 556.061 652.908 549.280 651.471 C 545.551 650.681, 540.025 650.076, 537 650.127 C 533.975 650.178, 529.495 650.612, 527.045 651.092 M 527.357 749.312 L 523.743 752.624 523.316 757.562 L 522.889 762.500 524.966 765.810 L 527.044 769.120 530.490 770.560 C 532.385 771.352, 534.970 772, 536.233 772 C 537.497 772, 540.064 771.178, 541.938 770.173 L 545.345 768.345 547.173 764.938 L 549 761.531 548.996 758.516 L 548.993 755.500 547.040 752.299 L 545.088 749.097 542.094 747.549 L 539.099 746 535.035 746 L 530.971 746 527.357 749.312" stroke="none" fill="#010100" fill-rule="evenodd"/><path d="M 140.156 79.536 C 136.666 80.293, 131.868 81.854, 129.493 83.003 C 127.118 84.153, 123.162 86.865, 120.702 89.031 C 118.242 91.197, 114.778 95.229, 113.006 97.990 L 109.784 103.012 107.419 110.458 L 105.055 117.903 104.403 125.721 L 103.751 133.539 104.900 142.176 C 105.532 146.926, 106.949 154.248, 108.049 158.447 C 109.149 162.645, 111.745 170.015, 113.818 174.824 C 115.891 179.633, 119.737 187.108, 122.364 191.436 C 124.992 195.763, 129.892 202.948, 133.254 207.402 C 136.616 211.856, 145.022 221.154, 151.933 228.064 C 158.845 234.975, 168.325 243.693, 173 247.437 C 177.675 251.182, 187.125 257.975, 194 262.533 C 200.875 267.090, 212.514 274.258, 219.864 278.460 C 227.214 282.663, 239.364 289.173, 246.864 292.928 C 254.364 296.682, 265.450 302.009, 271.500 304.765 C 277.550 307.520, 287.450 311.395, 293.500 313.375 C 299.550 315.355, 309.675 318.319, 316 319.963 C 322.325 321.607, 331.975 323.870, 337.444 324.993 C 342.913 326.116, 351.509 327.494, 356.546 328.056 L 365.705 329.077 375.103 324.498 C 380.271 321.979, 388.325 318.745, 393 317.310 C 397.675 315.876, 402.288 314.024, 403.250 313.196 C 404.212 312.368, 405 310.845, 405 309.812 C 405 308.779, 403.822 305.609, 402.383 302.769 C 400.943 299.928, 396.152 291.505, 391.736 284.052 C 387.319 276.598, 378.642 263.014, 372.453 253.864 C 366.263 244.714, 357.262 231.889, 352.450 225.364 C 347.638 218.839, 340.749 209.900, 337.140 205.500 C 333.531 201.100, 325.325 191.650, 318.904 184.500 C 312.484 177.350, 301.216 165.627, 293.865 158.449 C 286.514 151.270, 275.775 141.363, 270 136.432 C 264.225 131.501, 255.821 124.667, 251.325 121.245 C 246.828 117.823, 238.278 111.835, 232.325 107.938 C 226.371 104.041, 215.203 97.721, 207.507 93.895 L 193.514 86.938 184.507 84.054 C 179.553 82.468, 171.738 80.457, 167.140 79.585 L 158.779 78 152.640 78.079 C 149.263 78.123, 143.645 78.779, 140.156 79.536 M 95.500 270.676 C 93.850 270.883, 88.940 271.744, 84.589 272.589 L 76.678 274.126 70.589 276.897 L 64.500 279.668 60.807 283.774 L 57.113 287.881 56.412 291.615 L 55.712 295.349 56.835 301.425 L 57.959 307.500 61.433 314.500 L 64.908 321.500 70.992 328.204 C 74.339 331.892, 80.547 337.522, 84.788 340.716 C 89.030 343.910, 96.100 348.381, 100.500 350.652 C 104.900 352.923, 111.798 355.958, 115.828 357.397 C 119.859 358.836, 126.609 360.933, 130.828 362.057 C 135.048 363.181, 144.350 365.006, 151.500 366.113 L 164.500 368.126 186.500 368.699 L 208.500 369.273 222 368.097 C 229.425 367.450, 240.900 366.016, 247.500 364.911 C 254.100 363.805, 264.225 361.750, 270 360.346 C 275.775 358.941, 284.100 356.673, 288.500 355.306 C 292.900 353.939, 301.225 350.980, 307 348.730 C 312.775 346.479, 317.695 344.487, 317.933 344.303 C 318.172 344.118, 317.947 343.555, 317.433 343.051 C 316.920 342.548, 309.525 340.033, 301 337.463 C 292.475 334.893, 280.775 330.997, 275 328.805 C 269.225 326.613, 258.650 322.118, 251.500 318.816 C 244.350 315.514, 232.650 309.655, 225.500 305.795 C 218.350 301.936, 203.854 293.609, 193.287 287.290 L 174.074 275.803 163.287 273.963 C 157.354 272.952, 147.100 271.651, 140.500 271.072 C 133.900 270.494, 121.750 270.083, 113.500 270.160 C 105.250 270.237, 97.150 270.469, 95.500 270.676" stroke="none" fill="#9feafc" fill-rule="evenodd"/></svg>